<svg width="16" height="26" viewBox="0 0 16 26" fill="none" xmlns="http://www.w3.org/2000/svg">
<path d="M12.7407 0H3.25926C1.46133 0 0 1.644 0 3.66667V22.3333C0 24.356 1.46133 26 3.25926 26H12.7407C14.5387 26 16 24.356 16 22.3333V3.66667C16 1.644 14.5387 0 12.7407 0ZM14.2222 22.3333C14.2222 23.252 13.5573 24 12.7407 24H3.25926C2.44267 24 1.77778 23.252 1.77778 22.3333V3.66667C1.77778 2.748 2.44267 2 3.25926 2H12.7407C13.5573 2 14.2222 2.748 14.2222 3.66667V22.3333ZM10.0741 5C10.0741 5.552 9.67585 6 9.18518 6H6.81482C6.32415 6 5.92593 5.552 5.92593 5C5.92593 4.448 6.32415 4 6.81482 4H9.18518C9.67585 4 10.0741 4.448 10.0741 5Z" fill="#050B20"/>
</svg>
