<svg width="26" height="26" viewBox="0 0 26 26" fill="none" xmlns="http://www.w3.org/2000/svg">
<mask id="mask0_5_80" style="mask-type:luminance" maskUnits="userSpaceOnUse" x="0" y="0" width="26" height="26">
<path d="M25.9684 0.371429H0.711243V25.6286H25.9684V0.371429Z" fill="white"/>
</mask>
<g mask="url(#mask0_5_80)">
<path d="M22.3684 9.9982H20.3548C19.6819 9.0102 18.7866 8.18429 17.7435 7.59526C16.5756 6.93565 15.2493 6.58707 13.9081 6.58707H13.3398C12.9276 6.58707 12.5935 6.9212 12.5935 7.33338V9.9982H4.3112C2.49273 9.9982 0.985835 11.3538 0.745543 13.1074C0.742845 13.1243 0.740533 13.1412 0.738991 13.1586C0.721455 13.3029 0.711243 13.4494 0.711243 13.5983V16.452C0.711243 16.8641 1.04538 17.1983 1.45755 17.1983H4.06879C4.40081 18.4809 5.56797 19.4307 6.95288 19.4307C8.33779 19.4307 9.50496 18.4809 9.83695 17.1983H16.8427C17.1749 18.4809 18.3418 19.4307 19.7268 19.4307C21.1117 19.4307 22.2786 18.4809 22.6108 17.1983H25.222C25.6342 17.1983 25.9684 16.8641 25.9684 16.452V13.5983C25.9684 11.6132 24.3534 9.9982 22.3684 9.9982ZM14.0862 8.08237C15.7356 8.12962 17.3001 8.8331 18.4349 9.9982H14.0862V8.08237ZM2.20387 13.9687H3.35659C3.76876 13.9687 4.1029 13.6346 4.1029 13.2223C4.1029 12.8102 3.76876 12.4761 3.35659 12.4761H2.52895C2.90259 11.8847 3.56162 11.491 4.3112 11.491H12.5935V15.7056H9.83695C9.50474 14.4231 8.33779 13.4731 6.95288 13.4731C5.56797 13.4731 4.401 14.4231 4.06879 15.7056H2.20387V13.9687ZM8.43896 16.452C8.43896 17.2715 7.7724 17.9381 6.95288 17.9381C6.13334 17.9381 5.46681 17.2715 5.46681 16.452C5.46681 15.6325 6.13334 14.9659 6.95288 14.9659C7.7724 14.9659 8.43896 15.6325 8.43896 16.452ZM21.2128 16.452C21.2128 17.2715 20.5463 17.9381 19.7268 17.9381C18.9072 17.9381 18.2407 17.2715 18.2407 16.452C18.2407 15.6325 18.9072 14.9659 19.7268 14.9659C20.5463 14.9659 21.2128 15.6325 21.2128 16.452ZM22.6108 15.7056C22.2788 14.4231 21.1117 13.4731 19.7268 13.4731C18.3418 13.4731 17.1747 14.4231 16.8427 15.7056H14.0862V11.491H22.3684C23.1047 11.491 23.7539 11.871 24.1309 12.4449H22.9758C22.5636 12.4449 22.2295 12.779 22.2295 13.1911C22.2295 13.6034 22.5636 13.9376 22.9758 13.9376H24.4758V15.7056H22.6108Z" fill="white"/>
</g>
</svg>
