<svg width="26" height="26" viewBox="0 0 26 26" fill="none" xmlns="http://www.w3.org/2000/svg">
<mask id="mask0_5_59" style="mask-type:luminance" maskUnits="userSpaceOnUse" x="0" y="0" width="26" height="26">
<path d="M26 0H0V26H26V0Z" fill="white"/>
</mask>
<g mask="url(#mask0_5_59)">
<path d="M25.1522 16.3913H24.3043V12.1523C24.3043 10.7497 23.1633 9.60877 21.7609 9.60877H18.9807L17.8648 6.26089C17.5179 5.22069 16.5482 4.52179 15.4517 4.52179C15.3197 4.52179 6.15383 4.52179 5.93475 4.52179C4.82945 4.52179 3.8871 5.23064 3.53712 6.21743H2.54348C1.141 6.21743 0 7.35843 0 8.76087V12.1523C0 13.5547 1.141 14.6957 2.54348 14.6957H3.39133V16.3913H2.54348C2.07527 16.3913 1.69564 16.7709 1.69564 17.2392C1.69564 17.7075 2.07523 18.0871 2.54348 18.0871C3.3375 18.0871 4.29031 18.0871 5.08696 18.0871C5.08696 19.957 6.60831 21.4784 8.47829 21.4784C10.3482 21.4784 11.8696 19.957 11.8696 18.0871H15.8261C15.8261 19.957 17.3475 21.4784 19.2174 21.4784C21.0875 21.4784 22.6088 19.957 22.6088 18.0871C23.4057 18.0871 24.3588 18.0871 25.1522 18.0871C25.6205 18.0871 26.0001 17.7075 26.0001 17.2392C26.0001 16.7709 25.6204 16.3913 25.1522 16.3913ZM3.39133 13H2.54348C2.07599 13 1.69564 12.6197 1.69564 12.1522V8.76087C1.69564 8.29333 2.07599 7.91304 2.54348 7.91304H3.39133C3.39133 8.45323 3.39133 12.4762 3.39133 13ZM11.8695 6.21743H13.2826H15.4517C15.8173 6.21743 16.1405 6.45041 16.256 6.79709L17.1932 9.6087H11.8695V6.21743ZM5.08696 7.06522C5.08696 6.59772 5.46731 6.21737 5.93481 6.21737H10.174V9.6087H5.08696V7.06522ZM8.47829 19.7827C7.5433 19.7827 6.78265 19.022 6.78265 18.087C6.78265 17.152 7.5433 16.3913 8.47829 16.3913C9.4133 16.3913 10.174 17.152 10.174 18.087C10.174 19.022 9.4133 19.7827 8.47829 19.7827ZM19.2174 19.7827C18.2824 19.7827 17.5218 19.022 17.5218 18.087C17.5218 17.152 18.2824 16.3913 19.2174 16.3913C20.1524 16.3913 20.913 17.152 20.913 18.087C20.913 19.022 20.1524 19.7827 19.2174 19.7827ZM22.6087 16.3913H22.1525C21.5651 15.3787 20.4699 14.6957 19.2174 14.6957C17.9649 14.6957 16.8697 15.3787 16.2823 16.3913H11.4133C10.826 15.3787 9.73073 14.6957 8.47829 14.6957C7.22581 14.6957 6.13056 15.3787 5.54323 16.3913H5.08701V13.8478V11.3044C6.46958 11.3044 20.8531 11.3044 21.7609 11.3044C22.2284 11.3044 22.6088 11.6847 22.6088 12.1523L22.6087 16.3913Z" fill="white"/>
<path d="M14.4133 13H12.7176C12.2494 13 11.8698 13.3796 11.8698 13.8478C11.8698 14.3161 12.2494 14.6957 12.7176 14.6957H14.4133C14.8814 14.6957 15.2611 14.3161 15.2611 13.8478C15.2611 13.3796 14.8815 13 14.4133 13Z" fill="white"/>
</g>
</svg>
