<svg width="27" height="26" viewBox="0 0 27 26" fill="none" xmlns="http://www.w3.org/2000/svg">
<mask id="mask0_5_68" style="mask-type:luminance" maskUnits="userSpaceOnUse" x="0" y="0" width="27" height="26">
<path d="M26.1872 0.371429H0.930023V25.6286H26.1872V0.371429Z" fill="white"/>
</mask>
<g mask="url(#mask0_5_68)">
<path d="M23.7796 11.9506L19.4196 11.2235C19.1646 10.8095 18.6579 10.0604 17.921 9.31001C16.4503 7.81219 14.757 7.02051 13.0242 7.02051H5.92388C4.77054 7.02051 3.70121 7.64409 3.13317 8.6479L1.17658 12.1058C1.17342 12.1113 1.17105 12.1171 1.16804 12.1228C1.0167 12.3936 0.930023 12.7053 0.930023 13.0371V16.6807C0.930023 17.0894 1.26133 17.4206 1.66998 17.4206H4.03986C4.38769 18.3307 5.27425 18.9796 6.31083 18.9796C7.34741 18.9796 8.23394 18.3307 8.58182 17.4206H17.7721C18.1199 18.3307 19.0064 18.9796 20.043 18.9796C21.0796 18.9796 21.9661 18.3307 22.3139 17.4206H25.4472C25.8559 17.4206 26.1872 17.0894 26.1872 16.6807V14.7218C26.1872 13.3337 25.1529 12.1444 23.7796 11.9506ZM17.5682 11.1564H12.2378V8.50044H13.0242C15.1216 8.50044 16.7056 10.051 17.5682 11.1564ZM7.29907 8.50044H10.7579V11.1564H7.29907V8.50044ZM4.42118 9.37672C4.70976 8.86675 5.23868 8.53937 5.81915 8.50401V11.1564H3.41415L4.42118 9.37672ZM6.31083 17.4996C5.78778 17.4996 5.36226 17.0813 5.36226 16.5669C5.36226 16.0526 5.78778 15.6342 6.31083 15.6342C6.83388 15.6342 7.2594 16.0526 7.2594 16.5669C7.2594 17.0813 6.83388 17.4996 6.31083 17.4996ZM20.043 17.4996C19.5199 17.4996 19.0944 17.0813 19.0944 16.5669C19.0944 16.0526 19.5199 15.6342 20.043 15.6342C20.566 15.6342 20.9915 16.0526 20.9915 16.5669C20.9915 17.0813 20.566 17.4996 20.043 17.4996ZM22.388 15.9407C22.1097 14.9131 21.164 14.1543 20.043 14.1543C18.9219 14.1543 17.9763 14.9131 17.6979 15.9407H8.65581C8.37754 14.9131 7.43191 14.1543 6.31083 14.1543C5.18975 14.1543 4.24413 14.9131 3.96576 15.9407H2.40994V13.0371C2.40994 12.8161 2.58969 12.6363 2.81069 12.6363H18.8945L23.5459 13.412C23.5531 13.4132 23.5602 13.4143 23.5674 13.4153C23.6932 13.4325 23.813 13.4676 23.9245 13.5176C23.6149 13.6061 23.3881 13.8905 23.3881 14.2285C23.3881 14.6372 23.7194 14.9685 24.128 14.9685H24.7072V15.9408L22.388 15.9407Z" fill="white"/>
</g>
</svg>
