<svg width="27" height="34" viewBox="0 0 27 34" fill="none" xmlns="http://www.w3.org/2000/svg">
<path d="M21.1133 14.5624H20.1627C20.0557 14.5631 19.9497 14.5426 19.8508 14.5022C19.7517 14.4617 19.6617 14.4021 19.5858 14.3268L17.4245 12.1656C16.8916 11.6326 16.2579 11.2109 15.5605 10.9249C14.863 10.639 14.1158 10.4945 13.3621 10.5H6.48828C5.41084 10.5 4.37752 10.928 3.61566 11.6898C2.85379 12.4517 2.42578 13.485 2.42578 14.5624V18.6249C2.42578 19.2714 2.68259 19.8914 3.13971 20.3486C3.59683 20.8056 4.21681 21.0624 4.86328 21.0624C4.86328 21.8167 5.16289 22.54 5.6962 23.0733C6.2295 23.6066 6.95283 23.9062 7.70703 23.9062C8.46122 23.9062 9.18456 23.6066 9.71786 23.0733C10.2512 22.54 10.5508 21.8167 10.5508 21.0624H16.3196C16.4093 21.7423 16.7432 22.3662 17.2589 22.8183C17.7746 23.2703 18.4369 23.5195 19.1227 23.5195C19.8084 23.5195 20.4708 23.2703 20.9864 22.8183C21.5021 22.3662 21.8359 21.7423 21.9258 21.0624H22.7383C23.3848 21.0624 24.0047 20.8056 24.4619 20.3486C24.919 19.8914 25.1758 19.2714 25.1758 18.6249C25.1758 17.5475 24.7478 16.5142 23.9859 15.7523C23.224 14.9905 22.1908 14.5624 21.1133 14.5624ZM13.4027 12.1249C13.9365 12.124 14.4653 12.2283 14.9589 12.4318C15.4524 12.6354 15.901 12.9342 16.2789 13.3112L17.5302 14.5624H7.49578C7.34436 14.5635 7.19566 14.5222 7.06645 14.4433C6.93724 14.3643 6.83267 14.2508 6.76453 14.1156L5.82203 12.2306C6.03752 12.162 6.26214 12.1264 6.48828 12.1249H13.4027ZM4.05078 18.6249V14.5624C4.05122 14.069 4.20138 13.5874 4.48141 13.1812L5.29391 14.8062C5.49322 15.2208 5.80574 15.5704 6.19537 15.8148C6.585 16.0593 7.03583 16.1884 7.49578 16.1874H12.1758V19.4374H10.2664C10.0382 18.9515 9.67626 18.5404 9.22302 18.2526C8.76978 17.9647 8.24397 17.8118 7.70703 17.8118C7.17009 17.8118 6.64425 17.9647 6.19101 18.2526C5.73778 18.5404 5.37588 18.9515 5.14765 19.4374H4.86328C4.64779 19.4374 4.44113 19.3519 4.28876 19.1995C4.13638 19.0471 4.05078 18.8404 4.05078 18.6249ZM7.70703 21.8749C7.46599 21.8749 7.23035 21.8035 7.02993 21.6696C6.82951 21.5356 6.67329 21.3453 6.58106 21.1226C6.48881 20.8999 6.46467 20.6548 6.5117 20.4185C6.55873 20.182 6.6748 19.9648 6.84525 19.7944C7.01569 19.624 7.23285 19.5079 7.46926 19.4609C7.70568 19.4139 7.95073 19.438 8.17343 19.5303C8.39612 19.6225 8.58648 19.7787 8.72038 19.9791C8.85428 20.1795 8.92578 20.4152 8.92578 20.6562C8.92578 20.9795 8.79739 21.2895 8.56882 21.518C8.34026 21.7465 8.03026 21.8749 7.70703 21.8749ZM19.082 21.8749C18.841 21.8749 18.6054 21.8035 18.4049 21.6696C18.2045 21.5356 18.0483 21.3453 17.956 21.1226C17.8638 20.8999 17.8397 20.6548 17.8867 20.4185C17.9337 20.182 18.0498 19.9648 18.2202 19.7944C18.3907 19.624 18.6079 19.5079 18.8442 19.4609C19.0807 19.4139 19.3257 19.438 19.5485 19.5303C19.7711 19.6225 19.9615 19.7787 20.0954 19.9791C20.2293 20.1795 20.3008 20.4152 20.3008 20.6562C20.3008 20.9795 20.1724 21.2895 19.9438 21.518C19.7152 21.7465 19.4052 21.8749 19.082 21.8749ZM22.7383 19.4374H21.6414C21.4132 18.9515 21.0513 18.5404 20.598 18.2526C20.1448 17.9647 19.619 17.8118 19.082 17.8118C18.5451 17.8118 18.0193 17.9647 17.566 18.2526C17.1128 18.5404 16.7509 18.9515 16.5227 19.4374H13.8008V16.1874H21.1133C21.454 16.1893 21.7906 16.2625 22.1013 16.4025C22.412 16.5425 22.6899 16.746 22.917 16.9999H22.7383C22.5228 16.9999 22.3162 17.0856 22.1638 17.2379C22.0114 17.3903 21.9258 17.597 21.9258 17.8124C21.9258 18.0279 22.0114 18.2346 22.1638 18.387C22.3162 18.5394 22.5228 18.6249 22.7383 18.6249H23.5508C23.5508 18.8404 23.4652 19.0471 23.3128 19.1995C23.1604 19.3519 22.9538 19.4374 22.7383 19.4374Z" fill="white"/>
</svg>
