<svg width="16" height="17" viewBox="0 0 16 17" fill="none" xmlns="http://www.w3.org/2000/svg">
<path d="M7.20319 0C5.88579 0 4.68526 0.338644 3.60159 1.01594C2.51793 1.69323 1.64675 2.61886 0.988048 3.79283C0.329349 4.9668 0 6.24236 0 7.61952C0 8.99668 0.329349 10.2722 0.988048 11.4462C1.64675 12.6202 2.51793 13.5458 3.60159 14.2231C4.68526 14.9004 5.88579 15.239 7.20319 15.239C8.01062 15.239 8.79681 15.0923 9.56175 14.7988C10.3267 14.5053 11.0279 14.1102 11.6653 13.6135L14.6614 16.7291C14.7888 16.9097 14.9695 17 15.2032 17C15.4369 17 15.6282 16.921 15.7769 16.7629C15.9256 16.6049 16 16.4017 16 16.1534C16 15.905 15.915 15.7131 15.745 15.5777L12.8127 12.3944C13.2802 11.7171 13.6521 10.9721 13.9283 10.1594C14.2045 9.34661 14.3426 8.51129 14.3426 7.65339C14.3426 6.25365 14.0239 4.9668 13.3865 3.79283C12.749 2.61886 11.8778 1.69323 10.7729 1.01594C9.66799 0.338644 8.47809 0 7.20319 0ZM7.20319 1.69323C8.22311 1.69323 9.15804 1.96414 10.008 2.50598C10.8579 3.04781 11.5272 3.77025 12.0159 4.67331C12.5046 5.57636 12.749 6.55843 12.749 7.61952C12.749 8.68061 12.5046 9.67397 12.0159 10.5996C11.5272 11.5252 10.8579 12.2477 10.008 12.7669C9.15804 13.2862 8.22311 13.5458 7.20319 13.5458C6.18327 13.5458 5.24834 13.2862 4.39841 12.7669C3.54847 12.2477 2.86853 11.5252 2.35857 10.5996C1.84861 9.67397 1.59363 8.68061 1.59363 7.61952C1.59363 6.55843 1.84861 5.57636 2.35857 4.67331C2.86853 3.77025 3.54847 3.04781 4.39841 2.50598C5.24834 1.96414 6.18327 1.69323 7.20319 1.69323Z" fill="white"/>
</svg>
