<svg width="23" height="33" viewBox="0 0 23 33" fill="none" xmlns="http://www.w3.org/2000/svg">
<path d="M18.3798 0H5.00842C2.47286 0 0.411987 2.03837 0.411987 4.54626V27.6907C0.411987 30.1987 2.47286 32.237 5.00842 32.237H18.3798C20.9154 32.237 22.9762 30.1987 22.9762 27.6907V4.54626C22.9762 2.03837 20.9154 0 18.3798 0ZM20.4691 27.6907C20.4691 28.8298 19.5314 29.7573 18.3798 29.7573H5.00842C3.8568 29.7573 2.91913 28.8298 2.91913 27.6907V4.54626C2.91913 3.40721 3.8568 2.47977 5.00842 2.47977H18.3798C19.5314 2.47977 20.4691 3.40721 20.4691 4.54626V27.6907ZM14.6191 6.19943C14.6191 6.88385 14.0575 7.43932 13.3655 7.43932H10.0227C9.33072 7.43932 8.76912 6.88385 8.76912 6.19943C8.76912 5.51501 9.33072 4.95954 10.0227 4.95954H13.3655C14.0575 4.95954 14.6191 5.51501 14.6191 6.19943Z" fill="#050B20"/>
</svg>
