<svg width="21" height="23" viewBox="0 0 21 23" fill="none" xmlns="http://www.w3.org/2000/svg">
<path d="M10.5 12.9567C7.1 12.9567 4.5 13.7489 2.7 15.3333C0.9 16.9178 0 19.1922 0 22.1567C0 22.4122 0.0875 22.6167 0.2625 22.77C0.4375 22.9233 0.625 23 0.825 23H20.175C20.375 23 20.5625 22.9233 20.7375 22.77C20.9125 22.6167 21 22.4122 21 22.1567C21 19.1922 20.1 16.9178 18.3 15.3333C16.5 13.7489 13.9 12.9567 10.5 12.9567ZM1.725 21.3133C2.025 16.8667 4.95 14.6433 10.5 14.6433C16.05 14.6433 18.975 16.8667 19.275 21.3133H1.725ZM10.5 0C9.5 0 8.575 0.242777 7.725 0.728333C6.875 1.21389 6.2125 1.89111 5.7375 2.76C5.2625 3.62889 5.025 4.6 5.025 5.67333C5.025 6.74667 5.275 7.75611 5.775 8.70167C6.275 9.64722 6.9375 10.3883 7.7625 10.925C8.5875 11.4617 9.5 11.73 10.5 11.73C11.5 11.73 12.4125 11.4617 13.2375 10.925C14.0625 10.3883 14.725 9.64722 15.225 8.70167C15.725 7.75611 15.975 6.74667 15.975 5.67333C15.975 4.6 15.7375 3.62889 15.2625 2.76C14.7875 1.89111 14.125 1.21389 13.275 0.728333C12.425 0.242777 11.5 0 10.5 0ZM10.5 10.0433C9.45 10.0433 8.55 9.62167 7.8 8.77833C7.05 7.935 6.675 6.91278 6.675 5.71167C6.675 4.51056 7.0375 3.53944 7.7625 2.79833C8.4875 2.05722 9.4 1.68667 10.5 1.68667C11.6 1.68667 12.5125 2.07 13.2375 2.83667C13.9625 3.60333 14.325 4.57444 14.325 5.75C14.325 6.92556 13.95 7.935 13.2 8.77833C12.45 9.62167 11.55 10.0433 10.5 10.0433Z" fill="black"/>
</svg>
