<svg width="22" height="23" viewBox="0 0 22 23" fill="none" xmlns="http://www.w3.org/2000/svg">
<path d="M10.7333 12.9567C7.25778 12.9567 4.6 13.7489 2.76 15.3333C0.92 16.9178 0 19.1922 0 22.1567C0 22.4122 0.0894445 22.6167 0.268333 22.77C0.447222 22.9233 0.638889 23 0.843333 23H20.6233C20.8278 23 21.0194 22.9233 21.1983 22.77C21.3772 22.6167 21.4667 22.4122 21.4667 22.1567C21.4667 19.1922 20.5467 16.9178 18.7067 15.3333C16.8667 13.7489 14.2089 12.9567 10.7333 12.9567ZM1.76333 21.3133C2.07 16.8667 5.06 14.6433 10.7333 14.6433C16.4067 14.6433 19.3967 16.8667 19.7033 21.3133H1.76333ZM10.7333 0C9.71111 0 8.76556 0.242777 7.89667 0.728333C7.02778 1.21389 6.35056 1.89111 5.865 2.76C5.37944 3.62889 5.13667 4.6 5.13667 5.67333C5.13667 6.74667 5.39222 7.75611 5.90333 8.70167C6.41444 9.64722 7.09167 10.3883 7.935 10.925C8.77833 11.4617 9.71111 11.73 10.7333 11.73C11.7556 11.73 12.6883 11.4617 13.5317 10.925C14.375 10.3883 15.0522 9.64722 15.5633 8.70167C16.0744 7.75611 16.33 6.74667 16.33 5.67333C16.33 4.6 16.0872 3.62889 15.6017 2.76C15.1161 1.89111 14.4389 1.21389 13.57 0.728333C12.7011 0.242777 11.7556 0 10.7333 0ZM10.7333 10.0433C9.66 10.0433 8.74 9.62167 7.97333 8.77833C7.20667 7.935 6.82333 6.91278 6.82333 5.71167C6.82333 4.51056 7.19389 3.53944 7.935 2.79833C8.67611 2.05722 9.60889 1.68667 10.7333 1.68667C11.8578 1.68667 12.7906 2.07 13.5317 2.83667C14.2728 3.60333 14.6433 4.57444 14.6433 5.75C14.6433 6.92556 14.26 7.935 13.4933 8.77833C12.7267 9.62167 11.8067 10.0433 10.7333 10.0433Z" fill="black"/>
</svg>
