<svg width="25" height="34" viewBox="0 0 25 34" fill="none" xmlns="http://www.w3.org/2000/svg">
<path d="M19.9074 0.166656H5.0926C2.28333 0.166656 0 2.26845 0 4.85436V28.7189C0 31.3049 2.28333 33.4067 5.0926 33.4067H19.9074C22.7167 33.4067 25 31.3049 25 28.7189V4.85436C25 2.26845 22.7167 0.166656 19.9074 0.166656ZM22.2222 28.7189C22.2222 29.8934 21.1833 30.8497 19.9074 30.8497H5.0926C3.81667 30.8497 2.77778 29.8934 2.77778 28.7189V4.85436C2.77778 3.67987 3.81667 2.72358 5.0926 2.72358H19.9074C21.1833 2.72358 22.2222 3.67987 22.2222 4.85436V28.7189ZM15.7407 6.55896C15.7407 7.26468 15.1185 7.83743 14.3518 7.83743H10.6482C9.88149 7.83743 9.25927 7.26468 9.25927 6.55896C9.25927 5.85325 9.88149 5.2805 10.6482 5.2805H14.3518C15.1185 5.2805 15.7407 5.85325 15.7407 6.55896Z" fill="#050B20"/>
</svg>
